<?xml version="1.0" encoding="utf-8"?>
<!-- Generator: Adobe Illustrator 25.3.0, SVG Export Plug-In . SVG Version: 6.00 Build 0)  -->
<svg version="1.1" id="Livello_1" xmlns="http://www.w3.org/2000/svg" xmlns:xlink="http://www.w3.org/1999/xlink" x="0px" y="0px"
	 viewBox="0 0 512 512" style="enable-background:new 0 0 512 512;" xml:space="preserve">
<style type="text/css">
	.st0{fill:#00FFB2;}
</style>
<path class="st0" d="M448,64H64C28.6,64,0,92.7,0,128v256c0,35.4,28.6,64,64,64h384c35.4,0,64-28.6,64-64V128
	C512,92.7,483.3,64,448,64z M64,112h384c8.8,0,16,7.2,16,16v22.2L297.2,288.3c-23.2,19.3-59.3,19.3-82.5,0L48,150.2V128
	C48,119.2,55.2,112,64,112z M448,400H64c-8.8,0-16-7.2-16-16V212.7l136.1,113.4c20.2,16.7,45.7,25.9,71.9,25.9s51.8-9.2,72-26
	l136-113.3V384C464,392.8,456.8,400,448,400z"/>
</svg>
