<?xml version="1.0" encoding="utf-8"?>
<!-- Generator: Adobe Illustrator 25.3.0, SVG Export Plug-In . SVG Version: 6.00 Build 0)  -->
<svg version="1.1" id="Livello_1" xmlns="http://www.w3.org/2000/svg" xmlns:xlink="http://www.w3.org/1999/xlink" x="0px" y="0px"
	 viewBox="0 0 384 512" style="enable-background:new 0 0 384 512;" xml:space="preserve">
<style type="text/css">
	.st0{fill:#B7B7B7;}
</style>
<path class="st0" d="M365.3,93.4l-74.6-74.6C278.6,6.7,262.3,0,245.4,0L64,0C28.7,0,0,28.6,0,64l0,384c0,35.4,28.6,64,64,64h256
	c35.2,0,64-28.8,64-64V138.6C384,121.7,377.3,105.4,365.3,93.4z M320,464H64c-8.8,0-15.1-7.2-16-15.1l0-384.8c0-8.8,7.2-16,16-16
	h160V128c0,17.7,14.3,32,32,32h79.1v288C336,456.8,328.8,464,320,464z"/>
</svg>
