<?xml version="1.0" encoding="utf-8"?>
<!-- Generator: Adobe Illustrator 25.3.0, SVG Export Plug-In . SVG Version: 6.00 Build 0)  -->
<svg version="1.1" id="Livello_1" xmlns="http://www.w3.org/2000/svg" xmlns:xlink="http://www.w3.org/1999/xlink" x="0px" y="0px"
	 viewBox="0 0 512 512" style="enable-background:new 0 0 512 512;" xml:space="preserve">
<style type="text/css">
	.st0{fill:#00FFB2;}
</style>
<path class="st0" d="M501.6,4.2C494-1,484.2-1.4,476.2,3.1l-464,264C4.2,271.7-0.5,280.3,0,289.4c0.5,9.1,6.2,17.2,14.7,20.7
	L168,374.5V488c0,8.8,4.8,16.8,12.5,21.1c3.6,2,7.5,3,10.6,3c4.5,0,9-1.3,13-3.8l111.2-71.5l98.6,41.4c3,1.2,6.1,1.9,9.3,1.9
	c4.1,0,8.1-1,11.8-3.1c6.5-3.6,10.9-10.1,12-17.4l64-432C513.1,18.4,509.1,9.4,501.6,4.2z M369.3,119.2L182.2,328.1l-104-43.4
	L369.3,119.2z M215.1,444v-49.4l46.5,19.5L215.1,444z M404.8,421.9l-176.6-74.2L452.8,98.2L404.8,421.9z"/>
</svg>
